PathFileType	4	(X/Y/Z)	Walk1_0-155.trc
DataRate	CameraRate	NumFrames	NumMarkers	Units	OrigDataRate	OrigDataStartFrame	OrigNumFrames
30	30	7	22	m	30	77	155
Frame#	Time	Hip			RHip			RKnee			RAnkle			RBigToe			RSmallToe			RHeel			LHip			LKnee			LAnkle			LBigToe			LSmallToe			LHeel			Neck			Head			Nose			RShoulder			RElbow			RWrist			LShoulder			LElbow			LWrist		
		X1	Y1	Z1	X2	Y2	Z2	X3	Y3	Z3	X4	Y4	Z4	X5	Y5	Z5	X6	Y6	Z6	X7	Y7	Z7	X8	Y8	Z8	X9	Y9	Z9	X10	Y10	Z10	X11	Y11	Z11	X12	Y12	Z12	X13	Y13	Z13	X14	Y14	Z14	X15	Y15	Z15	X16	Y16	Z16	X17	Y17	Z17	X18	Y18	Z18	X19	Y19	Z19	X20	Y20	Z20	X21	Y21	Z21	X22	Y22	Z22
78	2.6	-0.675017660142196	0.8877834186881535	0.3621321255795325	-0.6674678587292121	0.8621370634415502	0.4606673773482976	-0.6207623869851372	0.5040299664902365	0.41694884819693745	-0.6554306959775288	0.10047736703294566	0.3822350135315488	-0.4293718758131178	0.05324044253410453	0.36620852973662976	-0.4885952979001519	0.02670377888854789	0.4384680356706658	-0.687477989948335	0.041114361175421874	0.3609093850461097	-0.674061064113589	0.870053995857464	0.25623596070460075	-0.5879788706537893	0.5143827449527271	0.2298733295684124	-0.9075784242600988	0.30086166411822146	0.25408099951060337	-0.883083401998698	0.0755171016889247	0.2810399252596404	-0.9213710271793142	0.10821657085470104	0.23043262516521906	-0.9979796151355416	0.3085959223295436	0.2676462534240322	-0.7290064300864884	1.5694053761803295	0.34785861283766006	-0.6803859919184404	1.8241282644924695	0.3705418714269988	-0.5509367658651347	1.6782111709903897	0.37162826512357394	-0.7529119372089598	1.444298513436092	0.5320490987807558	-0.6927510362238423	1.1289039271927555	0.5848443965286101	-0.57968466585736	0.8921005558361119	0.633188029982134	-0.7623975589099878	1.4577568172741293	0.14825110164152586	-0.7400827704716093	1.1386407110356735	0.12022973040977551	-0.6936788161893221	0.887089175065208	0.09845506544881981
79	2.6333333333333333	-0.6483265473447645	0.8996820683555216	0.3590192285784536	-0.638098319370867	0.8820290737797197	0.4611558242056688	-0.5912811563387202	0.4989965558344955	0.43805764858568497	-0.6385623211545766	0.1255479940843754	0.3819956154051714	-0.43628384382395974	0.04492461634932199	0.368090957005737	-0.487197707357758	0.026886588537630266	0.4402046269500181	-0.7074089400092659	0.032083717012818105	0.35541649029194994	-0.6452612601330474	0.8857602226318885	0.2548991811024508	-0.5103174806024254	0.5402094871634597	0.22830829204918454	-0.7997703538425343	0.2940774728369826	0.2609434645012827	-0.7017027941193613	0.11027986347903246	0.28636901628512895	-0.7580994113321007	0.12941459730017218	0.2161960050191993	-0.8748720015860676	0.28125371395775306	0.27481154651548556	-0.6888009528615424	1.5782872076449168	0.348759118656776	-0.6175806783337792	1.8127067277615165	0.3945301517336906	-0.5057864575469542	1.6867969491656019	0.37927662374177085	-0.7177761977884727	1.454074369320732	0.5288194454134219	-0.6401935263987942	1.1414070262644587	0.590131026502669	-0.5032037520089238	0.9131279864477043	0.6349415075117327	-0.7208075790128494	1.467321677591956	0.14807154385898932	-0.7153392727582031	1.1531535595115727	0.09532855502330997	-0.6764297393685491	0.8884062482499546	0.0941430436839324
80	2.6666666666666665	-0.6132067686936595	0.9072505326991759	0.36147879741800276	-0.610302792812932	0.878848168137888	0.46277768230442423	-0.5891458827473883	0.508765914032014	0.4291518408890528	-0.6383346674495816	0.12455928003789317	0.3787675498017386	-0.4392497588457591	0.03599764778337309	0.3813714048768336	-0.48856789508142845	0.022680288813821482	0.4424335444811051	-0.7073147018391646	0.04175884146527016	0.3585067468711944	-0.6039662184137103	0.883632961120016	0.2539173337166306	-0.4511111680084052	0.553083527157198	0.22225518549379542	-0.6893358807212282	0.27737441075780767	0.2613603256918	-0.5309539714260477	0.10649985013479299	0.2604222317492097	-0.5671006681738766	0.06672230827994118	0.2279759921759863	-0.7524366953497468	0.23594294528084506	0.263901342019764	-0.6482905086975731	1.5831059702497416	0.3511313171768433	-0.6071093084784226	1.8244816608138865	0.37257052868693635	-0.46876671444684515	1.6694541722784708	0.35693021878546366	-0.678964555791007	1.4621702857432017	0.5302581560032924	-0.5588418702315883	1.1550044703929105	0.6070178453726145	-0.4365574564887998	0.9286068763943709	0.6342860141477413	-0.6829083693229117	1.471519788703638	0.14816669210712302	-0.6692145747337254	1.1547604845306416	0.12032846635456257	-0.6688085205629303	0.9065672955400541	0.09338366777220942
81	2.7	-0.5788207269018195	0.9129639815966187	0.36662357310996824	-0.5832054995347214	0.8863683659779937	0.4685156334289213	-0.5811170029097898	0.5177295140029161	0.4255889308675959	-0.6344015592290172	0.11755453008838274	0.37266180633924606	-0.435291870626166	0.03975019199569118	0.38445467030353747	-0.4900430090476995	0.016510016797362432	0.42884743325707153	-0.7152803925283643	0.03412178087929393	0.35132708706271704	-0.5632607128570298	0.8983094971431257	0.2490307136235163	-0.33835688764200056	0.5776979162751573	0.2664094247275802	-0.5842053029664235	0.22885350603831212	0.2597898923905621	-0.39932190911797444	0.08170112269654689	0.26084143576715507	-0.38208684925137115	0.08254768050438017	0.21970833882641225	-0.6513454438472529	0.16989004835025578	0.26296567505568735	-0.6086648291703218	1.590239002080332	0.351156559190544	-0.5425641521996988	1.842021668247549	0.37774921674608275	-0.4487489171402495	1.686341321295449	0.3724777275862189	-0.6376578470622579	1.4703060434150634	0.5341645147041802	-0.5088445541231994	1.1598389857108184	0.6131967901797318	-0.3591189437949349	0.9405289121481101	0.6293674010228026	-0.6437250473902919	1.4760140309841192	0.1466083543392583	-0.6689166152256283	1.162820547178837	0.10657799831632375	-0.6394417960814391	0.9013836325175736	0.09380993083468805
82	2.7333333333333334	-0.5417360034138542	0.9110001379141224	0.3695775200713831	-0.5517584081154063	0.8851190701400699	0.4703611832081097	-0.5739154815536526	0.5147159407241134	0.42370935044580543	-0.641874891247677	0.11901424690444233	0.36394301454019107	-0.43332895410298755	0.03993211064915367	0.3888448289046479	-0.4848966363140782	0.028171629831155707	0.4428926318754729	-0.7130453103000594	0.0315290088725895	0.36192151384031906	-0.5215657083269147	0.8952785974511784	0.25240790260212165	-0.29270578204263603	0.5809627876960198	0.26567959655403534	-0.46568265419898197	0.19002285371789476	0.25892197482767443	-0.2666176486591888	0.07193145445554759	0.2534238648899821	-0.3123581181591577	0.08289782279413314	0.20988327021918404	-0.5184733134971096	0.11278356679180004	0.2749958219736938	-0.5698207953068376	1.5894509495942142	0.3512740099113839	-0.5135954283711088	1.8328681296151477	0.3669061389410792	-0.41605378175130514	1.6847630089076424	0.36613867798792593	-0.5944428193501688	1.472475968722095	0.5355572252806282	-0.45787551461543713	1.169158656260412	0.613399660937679	-0.2950120477957503	0.9586993399697968	0.6246803833073203	-0.6082897544491064	1.4751876456535171	0.15015934188183552	-0.6397701131349103	1.1621482629993507	0.11436065572292584	-0.6118028967968406	0.9009712951209601	0.09390127448902616
83	2.7666666666666666	-0.5049282507675643	0.907149531114964	0.3734551739211242	-0.5189053230789932	0.8889103218412819	0.48032245933071116	-0.5556046278837009	0.5124898742868123	0.4251226967546751	-0.6300778473917465	0.11849881913681563	0.3716998094799461	-0.4623435000656656	0.04113394569835849	0.3715183639617815	-0.4896096484449357	0.022330123804957153	0.43252463882480474	-0.7057031932044777	0.029443634334344437	0.3544362417655991	-0.47995272590961346	0.8963166995328236	0.2589148604254548	-0.2535076166925761	0.5751729960033481	0.26673518070292274	-0.3417427967675193	0.18488947343277334	0.26129212523818635	-0.14892002317426392	0.07552451905025039	0.2488562893297084	-0.18341872513036642	0.0750949794789874	0.20796456879686062	-0.37470000732134023	0.11375341650140677	0.28239982734113056	-0.5251425717530434	1.58734049093647	0.35188295846325346	-0.44701653536761293	1.8450030232178	0.38186605370765153	-0.3700769507748307	1.6826667148155683	0.37068192028924474	-0.5556612398976823	1.4724170902484381	0.5327253424738685	-0.41092124612889486	1.1715721239702341	0.6139599334430604	-0.22452262468312947	0.9669106270694221	0.6188829273873734	-0.5662967783930111	1.4727614052504139	0.15101251056414117	-0.6035797051532517	1.1653501603779224	0.11546565505559277	-0.5975396342797739	0.9141775922454717	0.09251027334587274
84	2.8	-0.46147914411208385	0.9046178432535803	0.3695390728741475	-0.4803051334624534	0.8817701013005307	0.4714933797942611	-0.5385291834281779	0.5069836439199752	0.42367483537647427	-0.6286519000049925	0.12058921646736791	0.3671456940594152	-0.45738992984464266	0.032013885837046244	0.36872908034032614	-0.49632880737045104	0.0258016954427728	0.4408394644282356	-0.7037242093650764	0.030153154166943877	0.3462401644412461	-0.4371607384034786	0.8847817265283741	0.2538661471262844	-0.22461688190967694	0.5567604602377805	0.26897138758884304	-0.2170504510646023	0.16909818055972378	0.26051587984027086	-0.013496965939132608	0.08789398920610268	0.25408302737447624	-0.03834926462192403	0.08295367957851667	0.20947329882177934	-0.224689634412168	0.04102492570105006	0.2961948161296959	-0.4833397042941336	1.581726785271577	0.3524650386022419	-0.4341181791918373	1.8248703259207362	0.36228821102157205	-0.3253770169653447	1.6785635131873977	0.36911687678396454	-0.5108224978553271	1.470016710536371	0.5315189456808262	-0.3646324123600644	1.170244802469038	0.6125545743978397	-0.16621682374712712	0.9817772363255054	0.6118013758263653	-0.4822570074192912	1.4588023380015758	0.1888886147811099	-0.572340981820814	1.1602139250958556	0.1214792776018666	-0.5657697249439504	0.9074409356649555	0.08733447634270897
